<?xml version="1.0" encoding="iso-8859-1"?>
<!-- Uploaded to: SVG Repo, www.svgrepo.com, Generator: SVG Repo Mixer Tools -->
<svg height="800px" width="800px" version="1.1" id="Layer_1" xmlns="http://www.w3.org/2000/svg" xmlns:xlink="http://www.w3.org/1999/xlink" 
	 viewBox="0 0 512.004 512.004" xml:space="preserve">
<g>
	<g>
		<path style="fill:#CDCDCD;" d="M156.101,172.435L83.568,99.902l12.066-12.066l72.533,72.533L156.101,172.435z"/>
		<path style="fill:#CDCDCD;" d="M332.434,191.635l-12.066-12.066l91.733-91.733l12.066,12.066L332.434,191.635z"/>
		<path style="fill:#CDCDCD;" d="M8.534,507.736c-2.236,0-4.471-0.879-6.153-2.62c-3.268-3.396-3.157-8.789,0.239-12.066
			l113.067-108.8c3.396-3.26,8.798-3.157,12.066,0.239c3.268,3.396,3.157,8.789-0.239,12.066l-113.067,108.8
			C12.801,506.942,10.667,507.736,8.534,507.736"/>
		<path style="fill:#CDCDCD;" d="M503.467,507.736c-2.133,0-4.267-0.794-5.922-2.389L380.212,392.28
			c-3.396-3.268-3.499-8.67-0.222-12.066c3.268-3.396,8.678-3.499,12.066-0.222l117.333,113.067
			c3.396,3.268,3.499,8.67,0.222,12.066C507.939,506.857,505.703,507.736,503.467,507.736"/>
	</g>
	<path style="fill:#EF705D;" d="M443.734,294.402c0,103.68-84.053,187.733-187.733,187.733S68.267,398.082,68.267,294.402
		s84.053-187.733,187.733-187.733S443.734,190.722,443.734,294.402"/>
	<g>
		<path style="fill:#86C250;" d="M110.934,55.469c0,28.279-22.921,51.2-51.2,51.2s-51.2-22.921-51.2-51.2s22.921-51.2,51.2-51.2
			S110.934,27.189,110.934,55.469"/>
		<path style="fill:#86C250;" d="M503.467,55.469c0,28.279-22.921,51.2-51.2,51.2c-28.279,0-51.2-22.921-51.2-51.2
			s22.921-51.2,51.2-51.2C480.547,4.269,503.467,27.189,503.467,55.469"/>
	</g>
	<g>
		<path style="fill:#50742F;" d="M42.667,72.535c-4.71,0-8.533-3.823-8.533-8.533c0-18.825,15.309-34.133,34.133-34.133
			c4.71,0,8.533,3.823,8.533,8.533s-3.823,8.533-8.533,8.533c-9.412,0-17.067,7.654-17.067,17.067
			C51.201,68.713,47.378,72.535,42.667,72.535"/>
		<path style="fill:#50742F;" d="M435.201,72.535c-4.71,0-8.533-3.823-8.533-8.533c0-18.825,15.309-34.133,34.133-34.133
			c4.71,0,8.533,3.823,8.533,8.533s-3.823,8.533-8.533,8.533c-9.412,0-17.067,7.654-17.067,17.067
			C443.734,68.713,439.911,72.535,435.201,72.535"/>
	</g>
	<g>
		<path style="fill:#BC5949;" d="M147.021,200.535c-4.71,0-8.533,3.823-8.533,8.533c0,4.71,3.823,8.533,8.533,8.533
			c66.074,0,108.74-52.881,141.773-104.61c0.64-0.998,1.041-2.091,1.22-3.191c-5.897-1.084-11.887-1.886-17.963-2.398
			C229.735,172.563,192.18,200.535,147.021,200.535"/>
		<path style="fill:#BC5949;" d="M367.984,143.722c-4.557-3.396-9.276-6.579-14.14-9.557c0,0-0.009,0.017-0.017,0.017
			c-31.718,49.69-71.757,100.489-128.119,100.489c-4.71,0-8.533,3.823-8.533,8.533s3.823,8.533,8.533,8.533
			C290.168,251.737,333.808,197.201,367.984,143.722"/>
		<path style="fill:#BC5949;" d="M428.98,242.881c2.961-0.836,4.975-3.183,5.76-5.948c-0.99-3.072-2.057-6.101-3.2-9.105
			c-2.031-1.451-4.608-2.099-7.185-1.374c-120.969,34.065-223.744,12.51-271.932-23.979c-15.744-11.93-24.422-24.738-24.422-36.07
			c0-2.586-1.212-4.83-3.029-6.391c-4.617,4.506-9.028,9.242-13.167,14.199c2.842,14.37,13.303,28.988,30.319,41.865
			c33.724,25.549,91.904,44.407,163.575,44.399C343.561,260.477,385.212,255.212,428.98,242.881"/>
		<path style="fill:#BC5949;" d="M432.855,311.798c-82.799,23.689-238.165,27.819-324.344-37.154
			c-14.729-11.11-23.177-22.571-23.177-31.445c0-4.301-3.243-7.714-7.381-8.294c-2.526,7.552-4.599,15.309-6.161,23.262
			c4.531,10.061,13.38,20.258,26.445,30.106c43.614,32.879,123.025,57.472,211.942,57.472c41.276,0,84.625-5.308,127.369-17.536
			c1.382-0.393,2.5-1.178,3.465-2.108c0.58-3.379,1.075-6.793,1.468-10.231C440.569,312.524,436.686,310.689,432.855,311.798"/>
		<path style="fill:#BC5949;" d="M393.039,422.649c4.625-4.941,9.011-10.103,13.082-15.522c-1.493-1.109-3.302-1.843-5.393-1.783
			c-180.275,7.1-279.714-18.031-322.261-81.562c-1.911-2.842-5.231-4.122-8.397-3.635c1.331,9.702,3.388,19.174,6.144,28.348
			c45.244,51.2,130.261,75.068,269.133,75.068C360.544,423.562,376.536,423.212,393.039,422.649"/>
	</g>
</g>
</svg>